<svg width="96" height="35" viewBox="0 0 96 35" fill="none" xmlns="http://www.w3.org/2000/svg">
<path d="M8.48105 34.8627C3.79975 34.8627 0 30.9324 0 26.1045C0 21.0291 4.01254 17.4082 8.48105 17.4082C11.1865 17.4082 13.6791 18.7699 15.047 20.7815L11.9768 23.8144C11.2473 22.3598 9.69697 21.7409 8.51145 21.7409C6.38359 21.7409 4.25572 23.4121 4.25572 26.1045C4.25572 28.5494 6.1404 30.5301 8.51145 30.5301C10.0313 30.5301 11.4297 29.6326 12.0072 28.4256L15.047 31.4585C13.7095 33.501 11.1865 34.8627 8.48105 34.8627Z" fill="white"/>
<path d="M16.8525 34.8631V18.6224H20.8684V20.5045C21.6233 19.0474 23.9483 18.5313 25.8808 18.6224V22.8723C23.435 22.4473 21.0798 23.9955 21.0798 26.5454V34.8631H16.8525Z" fill="white"/>
<path d="M35.3839 34.8634C30.3324 34.8634 26.9336 30.56 26.9336 26.4071C26.9336 22.0736 29.8959 17.9808 34.9785 18.0109C40.5289 18.041 44.3954 22.2541 42.8364 28.2729H31.7044C31.9227 29.7174 33.7001 31.1017 35.8204 31.1017C36.9742 31.1318 38.9698 30.6202 39.5311 29.8678L42.8364 32.3054C41.1525 34.1412 38.4397 34.8634 35.3839 34.8634ZM31.6732 24.6315H38.5644C38.7203 23.5482 37.8161 21.7124 35.1344 21.7124C32.827 21.7124 31.6732 23.3375 31.6732 24.6315Z" fill="white"/>
<path d="M52.2287 34.7424C47.566 34.7424 43.7871 30.9906 43.7871 26.3614C43.7871 21.7625 47.566 18.0107 52.2287 18.0107C56.8609 18.0107 60.6398 21.7625 60.6398 26.3614V34.8634H56.3733V32.8665C55.4286 33.986 53.9353 34.7424 52.2287 34.7424ZM52.2287 30.5065C54.5143 30.5065 56.3733 28.6609 56.3733 26.3614C56.3733 24.0922 54.5143 22.2466 52.2287 22.2466C49.9126 22.2466 48.0536 24.0922 48.0536 26.3614C48.0536 28.6609 49.9126 30.5065 52.2287 30.5065Z" fill="white"/>
<path d="M71.4732 34.8621C68.0524 34.8621 62.7245 33.9439 62.7245 28.0067V22.6816H61.2412V18.3971H62.7245V15H66.9626V18.3971H70.898V22.6816H66.9626V27.058C66.9626 30.2715 69.3239 30.5775 71.4732 30.5775V34.8621Z" fill="white"/>
<path d="M73.7305 34.8631V18.6123H77.9436V34.8631H73.7305Z" fill="#204FF5"/>
<path d="M79.749 34.8634V26.3288C79.749 21.4431 83.2313 18.0107 87.8744 18.0107C92.4869 18.0107 95.9998 21.4431 95.9998 26.3288V34.8634H91.7233V26.3288C91.7233 23.8241 90.1654 22.3399 87.8744 22.3399C85.5834 22.3399 84.0255 23.8241 84.0255 26.3288V34.8634H79.749Z" fill="#204FF5"/>
<path d="M29.6293 0.513913L31.8093 0.513913C33.7331 0.513913 34.8703 1.71404 34.8703 3.75471C34.8703 5.79987 33.7376 7 31.8093 7L29.6293 7V0.513913ZM30.4384 1.24208V6.27183H31.7554C33.2252 6.27183 34.0432 5.37286 34.0432 3.7637C34.0432 2.14105 33.2297 1.24208 31.7554 1.24208L30.4384 1.24208ZM37.6301 2.92316C36.8975 2.92316 36.3851 3.48502 36.3356 4.26263H38.8752C38.8572 3.48052 38.3673 2.92316 37.6301 2.92316ZM38.8572 5.66053H39.6259C39.491 6.4786 38.6999 7.08091 37.6796 7.08091C36.3401 7.08091 35.5265 6.15047 35.5265 4.68065C35.5265 3.22881 36.3536 2.24443 37.6436 2.24443C38.9067 2.24443 39.6843 3.16139 39.6843 4.57727V4.87393H36.3311V4.91888C36.3311 5.81336 36.857 6.40218 37.6976 6.40218C38.2909 6.40218 38.7269 6.10103 38.8572 5.66053ZM40.3945 3.61537C40.3945 2.81528 41.1092 2.24443 42.1385 2.24443C43.1049 2.24443 43.8151 2.81978 43.851 3.61087H43.1049C43.0509 3.16139 42.6869 2.88271 42.1115 2.88271C41.5407 2.88271 41.1631 3.16588 41.1631 3.57491C41.1631 3.89854 41.4103 4.1143 41.9407 4.24914L42.6644 4.42444C43.6083 4.66267 43.9499 5.00428 43.9499 5.69199C43.9499 6.50557 43.1813 7.08091 42.089 7.08091C41.0642 7.08091 40.3495 6.52354 40.2686 5.69649H41.0507C41.1361 6.18193 41.5047 6.44264 42.1385 6.44264C42.7723 6.44264 43.1633 6.17295 43.1633 5.75043C43.1633 5.41781 42.97 5.23801 42.4441 5.09867L41.6216 4.88741C40.799 4.67616 40.3945 4.25364 40.3945 3.61537ZM44.8039 7V2.32534H45.586V7H44.8039ZM45.195 1.53874C44.9298 1.53874 44.7095 1.31849 44.7095 1.0533C44.7095 0.783604 44.9298 0.567851 45.195 0.567851C45.4647 0.567851 45.6849 0.783604 45.6849 1.0533C45.6849 1.31849 45.4647 1.53874 45.195 1.53874ZM48.5437 6.34824C49.3572 6.34824 49.9011 5.67402 49.9011 4.64469C49.9011 3.61537 49.3572 2.93215 48.5437 2.93215C47.7391 2.93215 47.2132 3.59739 47.2132 4.64469C47.2132 5.69199 47.7391 6.34824 48.5437 6.34824ZM48.5706 8.76199C47.5413 8.76199 46.7277 8.18215 46.5974 7.38656H47.402C47.5548 7.81357 48.0178 8.09675 48.6021 8.09675C49.4112 8.09675 49.9011 7.62928 49.9011 6.93258V6.19542H49.8831C49.5955 6.70334 49.0426 7.03596 48.3863 7.03596C47.1952 7.03596 46.4131 6.09653 46.4131 4.64469C46.4131 3.17937 47.1952 2.24443 48.4043 2.24443C49.0651 2.24443 49.6134 2.56806 49.9236 3.11194H49.9371V2.32534H50.6832V6.90561C50.6832 8.02033 49.8607 8.76199 48.5706 8.76199ZM51.7036 7V2.32534H52.4407V3.07149H52.4587C52.7194 2.56806 53.2183 2.24443 53.942 2.24443C54.9668 2.24443 55.5601 2.90518 55.5601 3.96597V7H54.778V4.10531C54.778 3.35017 54.4229 2.93664 53.7038 2.93664C52.9666 2.93664 52.4857 3.45805 52.4857 4.24914V7H51.7036ZM60.7697 7.08091C60.0865 7.08091 59.5516 6.74829 59.2504 6.2089H59.2324V7H58.4863V0.513913L59.2684 0.513913V3.10745H59.2864C59.5786 2.57256 60.1224 2.24443 60.7832 2.24443C61.9608 2.24443 62.7564 3.19735 62.7564 4.66267C62.7564 6.13249 61.9653 7.08091 60.7697 7.08091ZM60.6169 2.93215C59.8258 2.93215 59.2639 3.62436 59.2639 4.66267C59.2639 5.70548 59.8258 6.39319 60.6169 6.39319C61.4439 6.39319 61.9563 5.73245 61.9563 4.66267C61.9563 3.60188 61.4439 2.93215 60.6169 2.93215ZM63.8037 8.7485C63.7093 8.7485 63.552 8.73951 63.4666 8.72153V8.06528C63.552 8.08326 63.6734 8.08776 63.7723 8.08776C64.2083 8.08776 64.451 7.8765 64.6308 7.33262L64.7387 7.00449L63.0126 2.32534H63.8487L65.1432 6.21789H65.1567L66.4512 2.32534H67.2738L65.4354 7.32813C65.0353 8.42038 64.6488 8.7485 63.8037 8.7485Z" fill="#5C5C5C"/>
</svg>
