<svg width="140" height="50" viewBox="0 0 140 50" fill="none" xmlns="http://www.w3.org/2000/svg">
<path d="M41.2158 17.794C41.2158 24.7176 46.8285 30.3302 53.752 30.3302C60.6756 30.3302 66.2882 24.7176 66.2882 17.794C66.2882 10.8705 60.6756 5.25781 53.752 5.25781" stroke="white" stroke-width="5.61559"/>
<path d="M136.994 17.7958C136.994 10.8723 131.381 5.25963 124.458 5.25963C117.534 5.25963 111.922 10.8723 111.922 17.7958C111.922 24.7194 117.534 30.332 124.458 30.332" stroke="white" stroke-width="5.61559"/>
<path d="M89.21 5.25781C82.2865 5.25781 76.6738 10.8705 76.6738 17.794C76.6738 24.7176 82.2865 30.3302 89.21 30.3302C96.1336 30.3302 101.746 24.7176 101.746 17.794H89.21" stroke="white" stroke-width="5.55999"/>
<path d="M25.4125 33.4043H33.6971L16.5694 17.766L33.1386 2.5H24.9471L8.37793 17.766L25.4125 33.4043Z" fill="white"/>
<rect x="1.11719" y="26.7031" width="7.26064" height="6.70213" fill="#43AFFF"/>
<path d="M135.066 44.5195H138.324V44.8919H135.066V44.5195Z" fill="white"/>
<path d="M1.27051 48.1781V40.888H1.71833L5.10299 46.7305H4.86346L8.23772 40.888H8.67512L8.68553 48.1781H8.16482L8.1544 41.6899H8.3002L5.10299 47.2095H4.84263L1.63501 41.6899H1.79123V48.1781H1.27051Z" fill="white"/>
<path d="M30.9104 48.1781V40.888H31.4415V48.1781H30.9104Z" fill="white"/>
<path d="M53.6649 48.1781V40.888H54.1127L59.3095 47.522H59.07V40.888H59.6011V48.1781H59.1637L53.9565 41.5441H54.1961V48.1781H53.6649Z" fill="white"/>
<path d="M81.8301 48.1781V40.888H82.3612V48.1781H81.8301Z" fill="white"/>
<path d="M104.585 48.1781V40.888H105.032L110.229 47.522H109.99V40.888H110.521V48.1781H110.083L104.876 41.5441H105.116V48.1781H104.585Z" fill="white"/>
<path d="M135.864 48.2301C135.315 48.2301 134.808 48.1399 134.343 47.9594C133.878 47.7719 133.472 47.5115 133.125 47.1783C132.785 46.845 132.521 46.4562 132.333 46.0119C132.146 45.5606 132.052 45.0676 132.052 44.533C132.052 43.9984 132.146 43.509 132.333 43.0646C132.521 42.6133 132.788 42.221 133.135 41.8878C133.482 41.5545 133.885 41.2976 134.343 41.1171C134.808 40.9297 135.319 40.8359 135.874 40.8359C136.402 40.8359 136.891 40.9193 137.343 41.0859C137.794 41.2525 138.179 41.5025 138.499 41.8357L138.165 42.1898C137.846 41.8774 137.495 41.6552 137.113 41.5233C136.739 41.3914 136.329 41.3254 135.885 41.3254C135.412 41.3254 134.975 41.4053 134.572 41.5649C134.17 41.7246 133.819 41.9503 133.52 42.2419C133.222 42.5335 132.989 42.8737 132.823 43.2625C132.663 43.6513 132.583 44.0748 132.583 44.533C132.583 44.9913 132.663 45.4148 132.823 45.8036C132.989 46.1924 133.222 46.5326 133.52 46.8242C133.819 47.1158 134.17 47.3414 134.572 47.5011C134.975 47.6608 135.412 47.7407 135.885 47.7407C136.315 47.7407 136.721 47.6747 137.103 47.5428C137.492 47.4109 137.846 47.1922 138.165 46.8867L138.467 47.2928C138.141 47.6053 137.749 47.8413 137.29 48.001C136.839 48.1538 136.364 48.2301 135.864 48.2301ZM137.957 47.2408V44.5643H138.467V47.2928L137.957 47.2408Z" fill="white"/>
</svg>
