<svg width="50" height="50" viewBox="0 0 50 50" fill="none" xmlns="http://www.w3.org/2000/svg">
<path d="M0 6.4C0 4.15979 0 3.03969 0.435974 2.18404C0.819467 1.43139 1.43139 0.819467 2.18404 0.435974C3.03969 0 4.15979 0 6.4 0H34C39.6005 0 42.4008 0 44.5399 1.08993C46.4215 2.04867 47.9513 3.57847 48.9101 5.46009C50 7.59921 50 10.3995 50 16V34C50 39.6005 50 42.4008 48.9101 44.5399C47.9513 46.4215 46.4215 47.9513 44.5399 48.9101C42.4008 50 39.6005 50 34 50H6.4C4.15979 50 3.03969 50 2.18404 49.564C1.43139 49.1805 0.819467 48.5686 0.435974 47.816C0 46.9603 0 45.8402 0 43.6V6.4Z" fill="#1E1E1E"/>
<g clip-path="url(#clip0_1_1582)">
<path d="M33 24.7345L26.3344 18.0688L22.3344 18.0688L27.6656 23.4001L17 23.4001L17 26.0688L27.6656 26.0688L22.3344 31.4001L26.3344 31.4001L33 24.7345Z" fill="#DDDDDD"/>
</g>
<defs>
<clipPath id="clip0_1_1582">
<rect width="16" height="16" fill="white" transform="translate(33 17) rotate(90)"/>
</clipPath>
</defs>
</svg>
