<svg width="26" height="26" viewBox="0 0 26 26" fill="none" xmlns="http://www.w3.org/2000/svg">
<path opacity="0.2" d="M13 26C20.1797 26 26 20.1797 26 13C26 5.8203 20.1797 0 13 0C5.8203 0 0 5.8203 0 13C0 20.1797 5.8203 26 13 26Z" fill="#979797"/>
<path fill-rule="evenodd" clip-rule="evenodd" d="M17.6416 10.5004C17.4986 9.01584 16.217 8.51813 14.5989 8.37637L14.5988 6.31701L13.345 6.31723L13.3451 8.32232C13.0159 8.32228 12.679 8.32879 12.3444 8.33547L12.3445 6.3171L11.0917 6.31707L11.0912 8.37585C10.8198 8.38139 10.5533 8.38643 10.2934 8.38661L10.2933 8.38022L8.56437 8.37964L8.56471 9.71843C8.56471 9.71843 9.49038 9.70078 9.47499 9.71783C9.98274 9.71798 10.1483 10.0127 10.1961 10.2671L10.1962 12.6132C10.2312 12.6134 10.2769 12.6148 10.3287 12.6219L10.1966 12.622L10.196 15.9087C10.1737 16.0684 10.0797 16.3232 9.725 16.3238C9.74104 16.3381 8.81379 16.3236 8.81379 16.3236L8.56482 17.821L10.1964 17.8208C10.3807 17.821 10.5632 17.823 10.7436 17.825C10.8605 17.8262 10.9765 17.8275 11.0916 17.8283L11.0922 19.9114L12.3444 19.9116L12.3447 17.8507C12.6881 17.8579 13.0209 17.8607 13.3457 17.8604L13.3452 19.9117L14.5987 19.9115L14.5991 17.8324C16.7065 17.7115 18.1818 17.1805 18.3644 15.202C18.5122 13.6084 17.763 12.8973 16.5666 12.6097C17.2932 12.2389 17.7476 11.5869 17.6413 10.5005L17.6416 10.5004ZM15.8875 14.9541C15.8879 16.3827 13.6432 16.3513 12.6171 16.3369C12.5252 16.3356 12.4431 16.3344 12.3732 16.3345L12.3735 13.5749C12.4589 13.5749 12.5627 13.5724 12.6802 13.5697C13.7318 13.5448 15.887 13.4939 15.8879 14.954L15.8875 14.9541ZM12.58 12.314C13.4366 12.328 15.304 12.3586 15.3044 11.0606C15.3045 9.73279 13.508 9.78052 12.6306 9.80384C12.532 9.80646 12.445 9.80877 12.3734 9.80878L12.3733 12.3116C12.4324 12.3116 12.502 12.3127 12.58 12.314Z" fill="white"/>
</svg>
