<svg width="17" height="21" viewBox="0 0 17 21" fill="none" xmlns="http://www.w3.org/2000/svg">
<path d="M4.88676 2.1875C4.88676 2.01345 4.81959 1.84653 4.70004 1.72346C4.58048 1.60039 4.41833 1.53125 4.24926 1.53125C4.08018 1.53125 3.91803 1.60039 3.79848 1.72346C3.67892 1.84653 3.61176 2.01345 3.61176 2.1875V3.57C2.38776 3.67062 1.58536 3.91737 0.995456 4.5255C0.404706 5.13275 0.165006 5.95962 0.0664062 7.21875H16.9321C16.8335 5.95875 16.5938 5.13275 16.0031 4.5255C15.4132 3.91737 14.6099 3.67062 13.3868 3.56912V2.1875C13.3868 2.01345 13.3196 1.84653 13.2 1.72346C13.0805 1.60039 12.9183 1.53125 12.7493 1.53125C12.5802 1.53125 12.418 1.60039 12.2985 1.72346C12.1789 1.84653 12.1118 2.01345 12.1118 2.1875V3.51137C11.5465 3.5 10.9124 3.5 10.1993 3.5H6.79926C6.08611 3.5 5.45201 3.5 4.88676 3.51137V2.1875Z" fill="#A6A6A6"/>
<path fill-rule="evenodd" clip-rule="evenodd" d="M0 10.5C0 9.76587 9.49949e-09 9.11313 0.01105 8.53125H16.989C17 9.11313 17 9.76587 17 10.5V12.25C17 15.5496 17 17.1999 16.0038 18.2245C15.0084 19.25 13.4054 19.25 10.2 19.25H6.8C3.59465 19.25 1.99155 19.25 0.9962 18.2245C-1.01328e-07 17.1999 0 15.5496 0 12.25V10.5ZM12.75 12.25C12.9754 12.25 13.1916 12.1578 13.351 11.9937C13.5104 11.8296 13.6 11.6071 13.6 11.375C13.6 11.1429 13.5104 10.9204 13.351 10.7563C13.1916 10.5922 12.9754 10.5 12.75 10.5C12.5246 10.5 12.3084 10.5922 12.149 10.7563C11.9896 10.9204 11.9 11.1429 11.9 11.375C11.9 11.6071 11.9896 11.8296 12.149 11.9937C12.3084 12.1578 12.5246 12.25 12.75 12.25ZM12.75 15.75C12.9754 15.75 13.1916 15.6578 13.351 15.4937C13.5104 15.3296 13.6 15.1071 13.6 14.875C13.6 14.6429 13.5104 14.4204 13.351 14.2563C13.1916 14.0922 12.9754 14 12.75 14C12.5246 14 12.3084 14.0922 12.149 14.2563C11.9896 14.4204 11.9 14.6429 11.9 14.875C11.9 15.1071 11.9896 15.3296 12.149 15.4937C12.3084 15.6578 12.5246 15.75 12.75 15.75ZM9.35 11.375C9.35 11.6071 9.26045 11.8296 9.10104 11.9937C8.94164 12.1578 8.72543 12.25 8.5 12.25C8.27457 12.25 8.05837 12.1578 7.89896 11.9937C7.73955 11.8296 7.65 11.6071 7.65 11.375C7.65 11.1429 7.73955 10.9204 7.89896 10.7563C8.05837 10.5922 8.27457 10.5 8.5 10.5C8.72543 10.5 8.94164 10.5922 9.10104 10.7563C9.26045 10.9204 9.35 11.1429 9.35 11.375ZM9.35 14.875C9.35 15.1071 9.26045 15.3296 9.10104 15.4937C8.94164 15.6578 8.72543 15.75 8.5 15.75C8.27457 15.75 8.05837 15.6578 7.89896 15.4937C7.73955 15.3296 7.65 15.1071 7.65 14.875C7.65 14.6429 7.73955 14.4204 7.89896 14.2563C8.05837 14.0922 8.27457 14 8.5 14C8.72543 14 8.94164 14.0922 9.10104 14.2563C9.26045 14.4204 9.35 14.6429 9.35 14.875ZM4.25 12.25C4.47543 12.25 4.69163 12.1578 4.85104 11.9937C5.01045 11.8296 5.1 11.6071 5.1 11.375C5.1 11.1429 5.01045 10.9204 4.85104 10.7563C4.69163 10.5922 4.47543 10.5 4.25 10.5C4.02457 10.5 3.80837 10.5922 3.64896 10.7563C3.48955 10.9204 3.4 11.1429 3.4 11.375C3.4 11.6071 3.48955 11.8296 3.64896 11.9937C3.80837 12.1578 4.02457 12.25 4.25 12.25ZM4.25 15.75C4.47543 15.75 4.69163 15.6578 4.85104 15.4937C5.01045 15.3296 5.1 15.1071 5.1 14.875C5.1 14.6429 5.01045 14.4204 4.85104 14.2563C4.69163 14.0922 4.47543 14 4.25 14C4.02457 14 3.80837 14.0922 3.64896 14.2563C3.48955 14.4204 3.4 14.6429 3.4 14.875C3.4 15.1071 3.48955 15.3296 3.64896 15.4937C3.80837 15.6578 4.02457 15.75 4.25 15.75Z" fill="#A6A6A6"/>
</svg>
