<svg width="36" height="36" viewBox="0 0 36 36" fill="none" xmlns="http://www.w3.org/2000/svg">
<path d="M17.7477 17.9984L17.9277 18.1064C18.0717 17.9984 18.1797 17.9264 18.3237 17.8904C17.9997 17.8904 17.6037 17.8184 17.7477 17.9984Z" fill="#43AFFF"/>
<path d="M18.0002 18.1084C18.0362 18.0724 18.0362 18.0724 18.0722 18.0364C18.0362 17.9644 17.9642 17.8924 17.9282 17.8564C17.9642 17.9644 17.9642 18.0364 18.0002 18.1084Z" fill="#43AFFF"/>
<path d="M17.9282 18.1436C17.9642 18.0716 18.0362 17.9996 18.1082 17.8916L17.9282 18.1436Z" fill="#43AFFF"/>
<path d="M17.8923 17.9999C17.9643 18.1799 18.0363 18.3599 18.0363 18.3599C18.0003 18.0359 18.1083 17.9639 18.2523 17.8919L17.7483 17.6399C17.7483 17.6399 17.8203 17.8199 17.8923 17.9999Z" fill="#43AFFF"/>
<path d="M18.0722 17.9648C18.0362 18.0008 17.9642 18.0008 17.9282 18.0008C17.9642 18.0368 18.0002 18.0368 18.0722 17.9648Z" fill="#43AFFF"/>
<path d="M17.9638 18.1436L18.0718 17.8916H17.9998C17.9278 17.9276 17.9278 17.9996 17.9638 18.1436Z" fill="#43AFFF"/>
<path d="M34.0558 18.2515C33.9838 17.9995 33.8038 18.1435 33.8398 18.1435C33.8038 18.2875 34.0198 18.2515 34.0558 18.2515Z" fill="#43AFFF"/>
<path d="M33.1917 15.768L33.2637 15.804L33.0117 15.48L33.1917 15.768Z" fill="#43AFFF"/>
<path d="M32.9401 14.7592L32.8681 14.8312L33.1561 14.9392C32.9761 14.4712 32.6521 13.8952 32.6521 13.5352C32.4361 13.8592 32.9401 14.3272 32.9401 14.7592Z" fill="#43AFFF"/>
<path d="M33.0112 12.42C32.9752 12.384 32.9752 12.312 32.9392 12.204C32.8312 12.312 32.7592 11.988 33.0112 12.492C33.0112 12.42 33.0112 12.42 33.0112 12.42Z" fill="#43AFFF"/>
<path d="M33.0117 12.4205C33.0477 12.2045 33.0837 12.6365 33.0117 12.4205V12.4205Z" fill="#43AFFF"/>
<path d="M32.7604 11.3403C32.5444 11.0523 32.5084 11.1603 32.4724 11.3763L32.7244 11.6283C32.7964 11.5563 32.6524 11.2683 32.7604 11.3403Z" fill="#43AFFF"/>
<path d="M32.1476 11.2332L32.2556 11.3772C32.2916 11.3052 32.2556 11.2692 32.1476 11.2332Z" fill="#43AFFF"/>
<path d="M32.3641 11.4853C32.2561 11.4853 32.3641 11.5213 32.5081 11.6293L32.2561 11.3413C32.2201 11.4133 32.1481 11.4493 32.3641 11.4853Z" fill="#43AFFF"/>
<path d="M32.5441 11.8069C32.5441 11.9869 32.5801 12.2389 32.3641 11.9869C32.6161 12.5269 32.8321 12.3829 32.5441 11.8069Z" fill="#43AFFF"/>
<path d="M32.3276 13.5711C32.3276 13.5711 32.3276 13.6431 32.3276 13.6791C32.3276 13.7511 32.3276 13.7871 32.3276 13.7871L32.4716 13.9311C32.3996 13.9311 32.3996 13.8231 32.3996 13.7151C32.3996 13.6071 32.3636 13.5351 32.3276 13.5711Z" fill="#43AFFF"/>
<path d="M31.68 9.53857C31.608 9.57457 31.572 9.71857 31.5 9.79057L31.68 9.97057C31.68 9.82657 31.608 9.57457 31.68 9.53857Z" fill="#43AFFF"/>
<path d="M31.4997 9.79057L31.2117 9.53857C31.3917 9.82657 31.4637 9.82657 31.4997 9.79057Z" fill="#43AFFF"/>
<path d="M32.2557 11.7372L31.7517 11.2332L31.7877 11.3412L32.2557 11.7372Z" fill="#43AFFF"/>
<path d="M31.1401 8.45772L30.7441 8.31372L30.8881 8.38572L31.1401 8.45772Z" fill="#43AFFF"/>
<path d="M30.3125 7.66902C30.5285 7.70502 30.3485 7.38102 30.5285 7.41702C30.3485 7.23702 30.0965 7.16502 29.9165 7.09302C30.0605 7.23702 30.2045 7.38102 30.3125 7.66902Z" fill="#43AFFF"/>
<path d="M29.5559 6.98486C29.6639 7.02086 29.7719 7.09286 29.8799 7.12886C29.8079 7.05686 29.6999 6.98486 29.5559 6.98486Z" fill="#43AFFF"/>
<path d="M30.9244 8.67505L30.8524 8.89105C30.8884 8.92705 30.8884 8.96305 30.9244 8.99905C30.9244 8.96305 30.9964 8.85505 30.9244 8.67505Z" fill="#43AFFF"/>
<path d="M30.8524 8.89189C30.7804 8.78389 30.7084 8.67589 30.6724 8.63989C30.6724 8.71189 30.7444 8.78389 30.8524 8.89189Z" fill="#43AFFF"/>
<path d="M31.068 10.4403C31.248 10.5123 31.212 10.2603 31.536 10.4403C31.32 10.2963 30.996 10.0083 31.068 10.4403Z" fill="#43AFFF"/>
<path d="M30.9964 9.68371C31.0324 9.64771 31.0684 9.53971 31.1764 9.61171L30.8524 9.35971C30.8524 9.32371 30.9964 9.68371 30.9964 9.68371Z" fill="#43AFFF"/>
<path d="M30.6724 9.21655L30.8524 9.32455L30.7804 9.21655H30.6724Z" fill="#43AFFF"/>
<path d="M29.8796 7.59573C29.6996 7.52373 29.5916 7.41573 29.4476 7.27173C29.5556 7.45173 29.6996 7.63173 29.8436 7.77573C29.8796 7.73973 30.0236 7.73973 29.8796 7.59573Z" fill="#43AFFF"/>
<path d="M30.346 8.24322C30.3124 8.20962 30.346 8.20962 30.346 8.24322C30.3124 8.24322 30.3124 8.24322 30.346 8.24322Z" fill="#43AFFF"/>
<path d="M28.0076 5.90332V5.93932L28.0436 5.90332H28.0076Z" fill="#43AFFF"/>
<path d="M29.8086 7.81115C29.8806 7.95515 29.9886 7.99115 30.0966 8.02715C29.9886 7.95515 29.9166 7.84715 29.8086 7.77515C29.7726 7.77515 29.7726 7.77515 29.8086 7.81115Z" fill="#43AFFF"/>
<path d="M29.1241 6.62354C29.1601 6.69554 29.1961 6.80354 29.2321 6.91154C29.2321 6.80354 29.1601 6.62354 29.1241 6.62354Z" fill="#43AFFF"/>
<path d="M30.3118 8.13605C30.3478 8.13605 30.3478 8.13605 30.3118 8.13605C30.3478 8.06405 30.3478 8.10005 30.3118 8.13605Z" fill="#43AFFF"/>
<path d="M30.3126 8.13486C30.2406 8.09886 30.1686 8.06286 30.0966 8.02686C30.1686 8.09886 30.2406 8.17086 30.3126 8.20686C30.3126 8.17086 30.3126 8.13486 30.3126 8.13486Z" fill="#43AFFF"/>
<path d="M26.4958 6.26541L26.8918 6.40941C26.8558 6.44541 26.7119 6.44541 26.7479 6.55341C26.8559 6.44541 27.3238 6.51741 27.4318 6.91341C27.7558 7.02141 28.0079 6.44541 28.0079 5.97741C27.9359 6.04941 27.8999 6.08541 27.5399 5.94141C27.5759 6.08541 28.0079 6.62541 27.6839 6.55341C27.2879 6.30141 27.4319 6.26541 27.2879 6.04941C27.2879 6.30141 26.6038 5.90541 26.4958 6.26541Z" fill="#43AFFF"/>
<path d="M28.5122 6.40816L28.6562 6.48016C28.5482 6.33616 28.5122 6.19216 28.4402 5.94016C28.1882 5.83216 28.1162 5.86816 28.0442 5.90416L28.5842 6.44416L28.5122 6.40816Z" fill="#43AFFF"/>
<path d="M29.1235 6.98314C28.9075 7.01914 28.5835 6.87514 28.5835 7.16314C28.9075 7.45114 28.9075 7.27114 29.1595 7.37914C28.6555 6.87514 29.3755 7.45114 29.1235 6.98314C29.2315 7.09114 29.3395 7.16314 29.4115 7.27114C29.3395 7.16314 29.2675 7.05514 29.2315 6.94714C29.2315 6.94714 29.2315 6.94714 29.2315 6.98314C29.2315 7.01914 29.2315 7.05514 29.2315 7.01914C29.1955 6.94714 29.1595 6.98314 29.1235 6.98314C29.0155 6.80314 29.1235 6.91114 29.1955 6.94714H29.2315L28.6195 6.51514C28.7275 6.62314 28.8715 6.76714 29.1235 6.98314Z" fill="#43AFFF"/>
<path d="M30.5273 10.369C30.5273 10.333 30.5273 10.333 30.5633 10.333C30.4913 10.297 30.4913 10.297 30.5273 10.369Z" fill="#43AFFF"/>
<path d="M30.6724 9.53942C30.6724 9.53942 30.6724 9.50342 30.7084 9.50342C30.6724 9.50342 30.6724 9.50342 30.6724 9.53942Z" fill="#43AFFF"/>
<path d="M30.5278 10.2954C30.6358 10.3674 30.8158 10.5114 30.7438 10.1874L30.7078 10.1514C30.6358 9.93542 30.6358 9.61142 30.6718 9.50342C30.5638 9.64742 30.5278 9.79142 30.4558 10.0074C30.4918 10.0434 30.5998 10.0434 30.6718 10.1874C30.7078 10.3674 30.5998 10.2594 30.5278 10.2954Z" fill="#43AFFF"/>
<path d="M29.6285 8.31525C29.5205 8.20725 29.4125 8.13525 29.4125 8.13525L29.4845 8.45925L29.5565 8.38725C29.7365 8.67525 29.7725 8.53125 29.8805 8.53125C29.8805 8.53125 29.8445 8.49525 29.8085 8.45925C29.7365 8.42325 29.7005 8.35125 29.6285 8.31525Z" fill="#43AFFF"/>
<path d="M28.1887 5.65161H27.7207L27.9727 5.75961L28.1887 5.65161Z" fill="#43AFFF"/>
<path d="M27.5037 5.18297L27.2517 5.14697L27.3597 5.32697L27.5037 5.18297Z" fill="#43AFFF"/>
<path d="M10.1879 29.5196C9.97191 29.3756 10.0079 29.5196 9.93591 29.5916C9.93591 29.5916 10.0079 29.5916 10.0799 29.5556C10.1519 29.5196 10.1879 29.5196 10.1879 29.5196Z" fill="#43AFFF"/>
<path d="M19.9799 2.33954C19.7639 2.23154 19.5839 2.15954 19.4399 2.12354C19.6919 2.30354 19.8719 2.48354 19.9799 2.33954Z" fill="#43AFFF"/>
<path d="M19.4405 2.12348C19.2605 2.01548 19.0085 1.94348 18.7925 2.08748C18.8285 2.12348 18.8645 2.12348 18.9005 2.12348C19.0805 2.12348 19.2605 2.08748 19.4405 2.12348Z" fill="#43AFFF"/>
<path d="M29.1958 26.0277L29.2318 25.9917C29.2318 25.9917 29.1958 25.9917 29.1958 26.0277Z" fill="#43AFFF"/>
<path d="M33.4429 20.3765C33.4429 20.4485 33.4429 20.5565 33.4069 20.6645C33.4069 20.6285 33.4429 20.5565 33.4429 20.3765Z" fill="#43AFFF"/>
<path d="M24.6958 3.6001C24.7318 3.6001 24.8398 3.6721 24.6958 3.6001V3.6001Z" fill="#43AFFF"/>
<path d="M17.1724 3.31323C17.206 3.34683 17.206 3.34683 17.1724 3.31323V3.31323Z" fill="#43AFFF"/>
<path d="M24.8758 3.77925C24.8398 3.74325 24.7678 3.67125 24.6958 3.63525C24.7318 3.67125 24.8038 3.70725 24.8758 3.77925Z" fill="#43AFFF"/>
<path d="M24.9125 3.67041C24.9485 3.70641 24.9845 3.74241 25.0205 3.74241C25.0565 3.74241 25.0565 3.70641 24.9125 3.67041Z" fill="#43AFFF"/>
<path d="M24.6967 3.5997C24.6607 3.5637 24.5887 3.5637 24.4807 3.4917C24.5527 3.5277 24.6607 3.5637 24.7327 3.6357C24.6967 3.5997 24.6967 3.5997 24.6967 3.5997Z" fill="#43AFFF"/>
<path d="M19.5835 32.544C19.6915 32.472 19.7635 32.436 19.5835 32.544V32.544Z" fill="#43AFFF"/>
<path d="M2.55608 14.7592C2.44808 14.9032 2.37608 15.0112 2.34008 15.1192C2.34008 15.2272 2.37608 15.3352 2.48408 15.4792C2.34008 15.5512 2.19608 15.7312 2.23208 15.3352C2.19608 15.5512 1.83608 16.7032 2.16008 16.7392C2.08808 16.8112 2.12408 17.0632 2.16008 17.0992C2.12408 17.6032 2.08808 17.6392 2.08808 18.1432L2.16008 17.9992C2.48408 18.2152 2.23208 18.3952 2.30408 18.8272H2.26808C2.16008 19.2952 2.19608 19.4032 2.23208 19.4752C2.23208 19.5112 2.26808 19.5832 2.26808 19.6552C2.19608 19.7992 2.19608 19.9432 2.16008 20.1592L2.37608 20.0872C2.84408 20.1232 2.23208 20.9152 2.48408 21.4192L2.59208 21.2032C2.77208 21.4552 2.16008 22.1392 2.16008 22.4272C2.12408 22.4992 2.05208 22.3552 2.01608 22.2472C1.94408 23.0752 2.30408 22.2832 2.52008 22.8232C2.41208 22.9672 2.08808 22.7872 2.19608 23.1832C2.16008 23.2912 2.37608 23.5432 2.59208 23.7952C2.80808 24.0472 2.98808 24.3712 2.98808 24.6952C3.06008 24.5512 3.09608 24.4072 3.31208 24.5872C3.52808 24.9112 3.38408 25.8112 3.88808 25.9552C3.88808 26.0272 3.85208 26.0632 3.85208 26.0632C4.10408 26.2792 4.53608 26.8552 4.78808 26.8912C4.53608 27.2152 4.93208 27.5752 5.25608 27.8632C5.58008 28.1512 5.94008 28.4032 5.68808 28.6192L6.37208 29.3032L6.30008 29.3392C6.69608 29.8072 6.98408 29.8072 7.27208 29.8432C7.34408 29.9872 7.23608 29.9512 7.20008 29.9872C7.77608 30.7072 7.88408 30.7072 8.67608 30.8872L8.60408 31.1032C8.71208 31.1032 8.92808 31.3912 9.25208 31.6432C9.39608 31.7872 9.57608 31.9312 9.79208 32.0392C9.97208 32.1832 10.1881 32.2912 10.4401 32.2912C10.4041 32.3272 10.3681 32.3272 10.2961 32.3272C10.5481 32.3632 10.8001 32.5072 11.0161 32.6512C11.2681 32.7952 11.4841 32.9752 11.7001 33.1192C12.1681 33.3712 12.5641 33.5512 12.8881 33.2272C12.8881 33.2272 13.0681 33.2272 13.2121 33.2272C13.3921 33.2272 13.5361 33.2272 13.5361 33.2272C12.7441 32.9752 13.7521 32.9032 13.4641 32.6872C13.7881 32.7232 14.1841 33.1192 13.7881 33.0832L13.7521 33.0112C13.5001 33.4072 14.7241 33.4432 14.6161 33.6952C16.2361 33.9832 17.8561 34.2712 19.4401 34.1272C19.4401 34.1272 19.4041 34.0552 19.3321 33.9832C19.2961 33.9112 19.2241 33.8392 19.2241 33.8392L19.7641 33.7672C19.9081 33.8392 19.9801 33.9832 19.5841 34.0552C19.8001 34.1992 20.1961 33.8032 20.1961 33.7312C20.9881 33.7672 19.9801 34.1632 20.1961 34.1272L20.5201 34.0552L20.4481 34.0192C20.5561 33.9472 20.6281 33.8392 20.7001 33.8032C20.7721 33.7312 20.9161 33.6952 21.1321 33.6232C21.4201 33.6232 21.3121 33.8032 21.4561 33.7672C21.4561 33.8032 21.4921 33.8032 21.6361 33.7312L22.3201 33.5872L21.9601 33.4432C22.2121 33.2632 22.5721 33.2992 22.1761 33.0832C22.4641 33.2272 23.0761 33.0472 23.6521 32.8312C24.2281 32.5792 24.7321 32.2912 24.8761 32.2912C24.9481 32.2192 25.0201 32.1112 25.1281 32.0392C25.2001 31.9672 25.3081 31.8952 25.3801 31.8232C25.5601 31.6792 25.7761 31.5712 25.9921 31.4632C25.8481 31.4992 25.6321 31.2832 26.0281 31.0672C26.1361 31.3552 26.3521 31.3192 26.5681 31.2112C26.8201 31.1032 27.1081 30.9232 27.3601 30.9592C27.1441 30.9232 27.3961 30.7432 27.6121 30.5272C27.8281 30.3112 27.9721 30.0952 27.6481 30.0952C27.9361 29.8792 27.8281 30.2392 28.1161 30.1672C28.2601 29.9872 28.4041 29.8072 28.5841 29.6272C28.6561 29.5552 28.7641 29.4832 28.8721 29.3752C28.9801 29.3032 29.0521 29.1952 29.1601 29.1232C29.5561 28.7632 29.9881 28.4392 30.2761 27.9712C30.2041 27.8992 30.0241 27.9712 30.0601 27.7192L30.7441 27.5032C30.8521 27.2872 30.4921 27.0712 30.9241 26.8912C30.8521 26.8912 30.7081 26.9272 30.7801 26.7832C31.5361 25.9912 31.9681 24.9472 32.3281 23.9032C32.5081 23.3632 32.6881 22.8592 32.8681 22.3552C32.9401 22.1032 33.0481 21.8512 33.1921 21.5632C33.3001 21.3112 33.4081 21.0592 33.5521 20.7712C33.3361 21.0592 33.3721 20.8432 33.4081 20.6272C33.3361 20.7712 33.2281 20.5912 33.0841 20.5912C33.0841 20.5912 33.1921 20.3752 33.3001 20.1592C33.3721 20.0512 33.4081 19.9432 33.4441 19.8712C33.4801 19.7992 33.5161 19.7272 33.5161 19.7272C33.2281 19.5472 33.5521 18.7552 33.2641 18.6472L33.3001 18.9352C32.9761 18.5392 32.5081 19.4032 32.0761 19.3312C32.1841 19.4392 32.1841 19.5472 32.1481 19.6912C32.1121 19.7992 32.0041 19.9432 31.9321 20.0872C31.7521 20.3752 31.6081 20.6632 31.8601 21.0232C31.7521 21.1312 31.7521 20.8792 31.6441 20.9152C31.8241 21.0952 31.7881 21.3112 31.6081 21.6352L31.5721 21.5992C31.4641 22.1032 31.3561 22.4632 31.1761 22.7872C31.0681 22.9672 30.9961 23.1112 30.8881 23.3272C30.7801 23.5072 30.6721 23.7232 30.5281 23.9752H30.7801C30.6361 24.1912 30.5641 24.1912 30.4561 24.2632C30.6361 24.6592 30.7801 23.6512 30.9961 24.0472C30.7081 24.1192 30.5281 24.4792 30.3481 24.8752C30.1681 25.2352 29.9161 25.5592 29.6281 25.5232C29.4481 25.8472 29.9161 25.5592 29.7001 25.8832H29.5201L29.6281 26.0632C29.4841 26.2792 29.2321 26.2432 29.1601 26.2072C29.1961 26.1712 29.2321 26.0632 29.2681 25.9912C28.9441 26.1352 28.8001 26.7112 28.6921 26.7832L28.9801 26.5672C28.8361 26.7832 28.7281 27.0352 28.5481 27.2152C28.3681 27.4312 28.1881 27.6112 28.0081 27.8272C27.9001 27.9352 27.8281 28.0432 27.7201 28.1512C27.6121 28.2592 27.5401 28.3312 27.4321 28.4392C27.2521 28.6552 27.0721 28.8352 26.9281 29.0512L27.0361 29.0872C26.9281 29.2672 26.8201 29.3392 26.7481 29.4112C26.6761 29.4832 26.6041 29.5192 26.4961 29.5552C26.3521 29.6272 26.1721 29.6632 25.8481 29.9512V29.9152C25.7761 30.0952 25.5961 30.2752 25.4161 30.3832C25.5241 30.1672 24.9481 30.3832 25.1281 30.1312C24.5161 30.7432 24.8761 30.4912 24.5881 31.1032L24.4081 30.9952C24.3001 31.2112 24.3361 31.2832 23.9761 31.5352C24.2281 31.2472 23.6161 31.4272 23.9041 31.0672C23.6521 31.0672 23.4721 31.1392 23.3281 31.2112C23.1841 31.2832 23.0401 31.3552 22.9321 31.4632C22.7161 31.6072 22.5361 31.7512 22.2481 31.5352C22.0321 32.1112 23.0401 31.5352 22.8601 31.6792C23.1121 31.7512 22.6801 32.1112 22.3921 32.1832C22.1041 32.2912 21.7441 31.7512 21.0961 31.9312C21.1681 31.9312 21.1681 31.8952 21.2401 31.8592C21.0961 31.8232 20.9881 31.8952 20.8801 31.9672C20.7721 32.0392 20.6281 32.0752 20.4481 32.0032C20.3041 32.3272 20.0521 32.0392 20.0521 32.4352L20.6641 32.2552C20.3401 32.3992 20.0521 32.8672 19.4041 32.7592C19.4401 32.6872 19.6201 32.5432 19.7281 32.4712C19.5481 32.3992 19.4041 32.6152 19.1881 32.5072C19.1881 32.1472 19.9441 32.3272 20.3041 32.0032C20.0881 31.8952 19.6201 32.3632 19.7641 31.9672C19.6561 32.2552 19.4761 32.2552 19.2961 32.2552C19.0801 32.2192 18.8641 32.1832 18.6481 32.3992L18.6841 32.1832C18.6121 32.2192 18.4681 32.3272 18.3241 32.3272L18.5761 32.0392C18.2161 32.2912 17.8561 31.8952 17.4961 31.9672C17.8561 32.0032 17.9281 32.0392 17.8921 32.1472C17.8921 32.2192 17.8201 32.3632 17.9641 32.3992C16.9921 32.6512 17.4241 31.8232 16.4161 31.8592C16.5601 31.8592 16.9201 32.0032 16.7041 32.1112C16.5241 32.0752 16.2721 31.9312 16.1641 31.8232C15.4801 31.7512 16.2361 32.0752 15.9481 32.1472C15.7681 31.8592 15.5881 32.2192 15.2641 32.2552L15.1201 32.0392C14.9401 31.9672 14.8321 31.9672 14.7601 31.9672C14.6881 31.9672 14.6521 32.0392 14.6161 32.0752C14.5441 32.1832 14.5081 32.2552 14.1481 32.1112L14.5081 31.8952H14.1121L14.2561 31.6792C14.0401 31.7152 13.8961 31.7152 13.7881 31.6792C13.6441 31.6432 13.5361 31.6072 13.3561 31.4992C13.3921 31.6792 13.1761 31.8592 12.8521 31.7512C12.6721 31.5352 13.0681 31.6072 12.5641 31.4632C12.7081 31.3552 12.8881 31.2472 13.0321 31.5352C13.0681 31.4632 13.1761 31.4272 13.2121 31.3912C13.0321 31.1752 12.6361 31.1392 12.4561 31.0672C12.5281 31.1032 12.6001 31.1392 12.6001 31.1752C12.6001 31.1752 12.4201 31.1752 12.2041 31.1752C12.0241 31.1752 11.8081 31.1752 11.8081 31.1752C11.7361 31.0672 11.8441 31.0312 11.9521 30.9952C11.8081 30.9592 11.6641 30.9952 11.4841 30.9232C11.6281 30.7792 11.7001 30.5992 11.9881 30.6712L11.3041 30.5632C11.3041 30.4912 11.0881 30.2032 11.1961 30.2032C10.9441 29.9152 10.2241 30.0232 9.90008 29.6272C9.86408 29.6272 9.79208 29.6272 9.68408 29.5912C9.50408 29.4472 9.36008 29.2312 9.21608 29.0872C9.14408 29.0152 9.03608 28.9432 8.92808 28.8712C8.82008 28.7992 8.71208 28.7272 8.56808 28.6912V28.2232C8.20808 27.9712 8.60408 28.7992 7.99208 28.4032C7.52408 28.1152 8.02808 28.0792 7.99208 27.8992C7.70408 27.8272 7.16408 27.7192 7.02008 27.1792C7.16408 27.2512 7.23608 27.3952 7.34408 27.4672L7.23608 27.0712C7.74008 27.1792 7.88408 27.4672 7.84808 27.0712C7.59608 27.2512 7.34408 27.0352 7.12808 26.7472C6.91208 26.4952 6.69608 26.2072 6.40808 26.3872L6.37208 26.1352C6.40808 26.2072 6.44408 26.1712 6.48008 26.2432C6.44408 25.7032 5.90408 26.2072 5.65208 25.6672C5.58008 25.4512 5.58008 25.3072 5.72408 25.3792L5.32808 25.0552C5.25608 24.9472 5.36408 24.9112 5.43608 25.0192C5.43608 25.0192 5.40008 24.9832 5.36408 24.9112C5.32808 24.8392 5.29208 24.7672 5.25608 24.6952C5.18408 24.5512 5.07608 24.3712 5.07608 24.3712H5.11208C4.96808 24.3352 4.75208 24.1912 4.64408 24.0832C4.64408 23.8672 4.75208 24.1552 4.78808 24.0472L4.46408 23.7592C4.50008 23.6512 4.60808 23.6512 4.68008 23.7232C4.78808 23.7952 4.86008 23.9032 4.93208 24.0472C5.14808 23.7592 5.07608 23.6872 4.93208 23.6152C4.82408 23.5072 4.64408 23.3632 4.68008 22.9312L4.89608 23.2552C5.14808 22.8952 4.93208 22.6792 5.00408 22.2472C4.93208 22.3552 4.75208 23.1832 4.46408 22.8592C4.46408 22.7152 4.42808 22.5712 4.24808 22.3912C4.46408 22.3192 4.35608 22.1392 4.28408 21.8512L4.57208 21.7792C4.42808 21.5272 4.28408 21.5632 4.10408 21.4192C4.03208 21.0952 4.24808 20.9872 4.42808 20.8432C4.39208 20.3032 4.14008 21.2752 3.96008 20.6632C3.99608 20.4472 3.96008 20.2312 3.88808 20.0512C3.81608 19.8712 3.70808 19.6552 3.60008 19.4032C3.67208 19.0792 3.78008 19.4392 3.85208 19.3312L3.63608 19.0792C3.63608 19.0072 3.70808 19.0432 3.74408 19.0432C3.63608 18.8272 3.45608 19.0432 3.34808 18.6472C3.20408 18.6112 3.27608 18.3952 3.38408 18.1432C3.52808 17.8912 3.63608 17.6392 3.45608 17.3872C3.52808 17.2792 3.63608 17.4592 3.74408 17.4232C3.56408 16.8112 3.60008 16.9192 3.38408 16.3432L3.63608 15.9112C3.38408 16.1992 3.16808 15.7312 3.02408 15.2992C2.91608 15.4072 2.80808 15.4792 2.73608 15.5512C2.73608 15.5512 2.73608 15.3712 2.70008 15.2272C2.70008 15.0472 2.70008 14.9032 2.70008 14.9032C2.77208 14.8312 2.84408 14.9392 2.95208 15.0472C2.95208 15.0112 2.91608 14.9392 2.91608 14.9032C3.09608 14.7232 3.20408 14.8672 3.34808 15.0472C3.27608 15.1192 3.20408 15.1552 3.13208 15.2272C3.27608 15.4072 3.45608 15.5872 3.63608 15.5872C3.60008 15.5512 3.60008 15.4792 3.60008 15.3712C3.56408 15.4792 3.60008 15.5152 3.63608 15.4792C3.67208 15.4792 3.60008 15.4072 3.56408 15.2632L3.92408 15.1912L3.81608 15.1192L4.21208 14.4352C4.17608 14.2912 4.10408 14.1112 4.06808 13.9672C4.03208 13.8232 3.99608 13.6432 3.96008 13.4632C3.88808 13.1032 3.85208 12.7072 3.99608 12.2752C4.10408 12.5632 4.32008 12.4912 4.60808 12.5992C4.24808 12.7072 4.50008 13.2832 4.28408 13.6792C4.39208 13.4632 4.50008 13.5712 4.53608 13.6432L4.57208 12.7792C4.78808 12.8872 4.78808 12.6712 4.96808 12.5272C4.46408 12.4912 4.96808 11.8432 4.96808 11.4832C5.11208 11.5552 5.22008 11.6992 5.00408 12.0232C5.50808 11.8072 4.75208 11.2312 5.25608 11.0152C5.22008 11.0872 5.14808 11.1232 5.22008 11.1952C5.22008 10.9432 5.61608 10.5112 5.65208 10.6912L5.61608 10.7632C5.72408 10.6192 5.83208 10.4752 5.94008 10.2592C6.04808 10.0792 6.19208 9.89918 6.30008 9.68318C6.51608 9.32318 6.62408 8.92718 6.51608 8.78318C6.55208 8.81918 6.80408 9.14318 6.87608 9.21518C6.87608 9.21518 6.84008 9.10718 6.84008 8.96318C6.80408 8.78318 6.80408 8.56718 6.76808 8.35118C6.73208 7.91918 6.69608 7.45118 6.69608 7.45118C6.87608 7.77518 7.70408 8.02718 7.48808 8.56718C7.63208 8.49518 7.77608 8.38718 7.92008 8.06318C7.81208 8.09918 7.38008 7.88318 7.45208 7.77518C8.02808 7.77518 7.81208 7.73918 8.38808 7.63118C8.20808 7.66718 7.99208 7.16318 8.20808 7.01918C8.24408 7.09118 8.56808 7.41518 8.53208 7.48718C8.53208 7.48718 8.56808 7.27118 8.60408 7.09118C8.64008 6.87518 8.67608 6.69518 8.67608 6.69518C8.60408 6.87518 8.92808 7.05518 9.14408 7.09118C9.03608 7.05518 9.57608 6.76718 9.68408 6.62318L9.39608 6.69518C10.0081 6.33518 9.54008 5.68718 10.1881 5.32718C10.1521 5.47118 10.3321 6.01118 10.6921 5.86718C10.6921 5.72318 10.6921 5.32718 10.7641 4.93118C10.8361 4.53518 10.9801 4.13918 11.2681 3.88718L11.4481 3.95918C11.4481 3.95918 11.5561 3.85118 11.6641 3.77918C11.7721 3.67118 11.8801 3.59918 11.8801 3.59918C11.8081 3.81518 11.6641 4.24718 11.4841 4.67918C11.3401 5.07518 11.1601 5.47118 11.0521 5.72318C11.3401 5.72318 11.1961 5.83118 11.5561 5.65118C11.7361 5.72318 11.4481 5.93918 11.3761 5.97518L12.2041 5.68718C12.1321 5.54318 12.2401 5.39918 12.3841 5.25518C12.5281 5.11118 12.6721 5.00318 12.6001 4.89518C12.6001 4.89518 12.5641 4.93118 12.4561 5.00318C12.3841 5.07518 12.2761 5.14718 12.2041 5.25518C12.0241 5.43518 11.8441 5.61518 11.8441 5.61518C11.7721 5.47118 11.8081 5.21918 11.9161 4.96718C11.9881 4.82318 12.0961 4.71518 12.2041 4.60718C12.3121 4.49918 12.4921 4.42718 12.6361 4.39118C12.8521 4.46318 12.7081 4.96718 12.7801 5.03918C12.8161 4.89518 13.2841 4.64318 13.3561 4.67918L13.1401 4.93118C13.3201 4.93118 13.4281 4.78718 13.5361 4.64318C13.6441 4.49918 13.8241 4.42718 14.0761 4.49918C14.2201 4.46318 14.6161 4.78718 14.5801 4.60718C14.2561 4.31918 13.9321 3.27518 14.0401 2.98718C14.0761 2.98718 14.2921 3.02318 14.5441 3.05918C14.7961 3.09518 15.0481 3.20318 15.1561 3.27518C15.4441 3.52718 14.9041 3.99518 15.1561 4.17518C15.1561 4.10318 15.2641 3.95918 15.3361 3.92318C15.5161 3.95918 15.3001 4.17518 15.6601 4.10318C15.6601 3.77918 16.3441 4.03118 15.7681 3.81518C16.0921 3.67118 16.1281 3.81518 16.5241 3.77918C16.3801 3.59918 16.8481 3.05918 17.2081 2.95118C17.2081 3.02318 17.2801 3.13118 17.3161 3.16718C17.4961 3.16718 17.6401 3.16718 17.8201 3.16718C17.9641 3.20318 18.1081 3.20318 18.2521 3.23918C18.5041 3.27518 18.7921 3.34718 19.1161 3.34718C19.1881 3.41918 19.4761 3.52718 19.3321 3.67118C19.4401 3.63518 19.5121 3.52718 19.7281 3.56318C20.0881 3.88718 19.2601 3.52718 19.5481 3.92318C19.5841 3.74318 20.0881 3.74318 20.4121 3.67118C20.3761 3.38318 19.7641 3.52718 19.4401 3.59918C19.4761 3.20318 20.0521 2.87918 20.8081 2.80718C21.4201 2.80718 20.9881 3.09518 21.1321 3.05918C21.6361 3.23918 21.9241 3.13118 22.1761 3.02318C22.4281 2.95118 22.6441 2.87918 23.0401 3.16718C23.2921 3.52718 22.8961 3.63518 22.8961 3.85118C22.6801 3.81518 22.5001 3.70718 22.3921 3.63518C22.2481 3.56318 22.1401 3.45518 21.9601 3.41918L22.3201 3.63518C22.1401 3.67118 21.8521 3.67118 21.7081 3.56318C21.9241 3.81518 23.4361 4.10318 24.0481 4.64318C24.2281 4.64318 24.4801 4.64318 24.4081 4.53518L24.1561 4.46318C24.0121 4.17518 24.7321 4.42718 24.4441 4.21118C24.6241 4.21118 24.8401 4.21118 25.0561 4.28318C25.1641 4.31918 25.2721 4.31918 25.3801 4.39118C25.4881 4.42718 25.5961 4.49918 25.6681 4.60718L25.5961 4.89518C25.6321 4.82318 25.4161 4.57118 25.2361 4.57118C25.4881 4.57118 25.7041 5.29118 26.1001 5.11118L25.8841 4.75118C26.2441 4.82318 26.8201 4.78718 27.1441 5.14718C27.1441 4.78718 27.0361 5.11118 26.9641 4.64318C27.0001 5.14718 25.9561 3.99518 26.1361 4.60718C26.0281 4.10318 25.7401 4.13918 25.4881 3.67118C25.4521 3.74318 25.5601 3.88718 25.2001 3.67118C25.1641 3.67118 25.1281 3.70718 25.0921 3.70718C25.0921 3.70718 25.0921 3.70718 25.0561 3.70718V3.74318C25.0201 3.74318 25.0201 3.74318 25.0561 3.74318C25.1281 3.81518 25.1641 3.88718 25.1641 3.95918C24.8761 4.06718 24.3361 3.77918 24.1201 3.81518C23.9401 3.67118 24.2641 3.74318 24.1921 3.59918C24.1921 3.59918 24.1201 3.59918 24.0121 3.59918C23.9401 3.59918 23.8321 3.63518 23.8321 3.63518C23.8681 3.41918 23.4001 3.09518 23.9401 3.16718L23.4721 2.98718C23.2561 2.77118 22.8601 2.59118 22.6081 2.59118C22.3921 2.48318 21.9601 2.66318 22.2121 2.55518L21.4201 2.48318V2.44718C21.0601 2.33918 20.6641 2.37518 20.2321 2.33918C19.8361 2.33918 19.4401 2.23118 19.0081 2.05118C18.7561 2.08718 18.4681 2.12318 18.0721 2.05118L18.0001 1.87118C17.6761 1.90718 16.9921 1.72718 16.8481 1.90718C16.7401 1.79918 16.5961 1.72718 16.4161 1.69118C16.2361 1.65518 16.0201 1.69118 15.8041 1.72718C15.3721 1.79918 14.9401 1.94318 14.6161 1.94318L14.6521 2.15918C14.2561 2.23118 13.8961 2.41118 13.4641 2.59118L13.5361 2.77118C13.1761 3.02318 12.4561 2.95118 11.8441 3.20318C11.8441 3.13118 12.0241 3.05918 12.1681 3.09518C11.9521 3.05918 11.7361 3.09518 11.5201 3.16718C11.3401 3.23918 11.1601 3.38318 10.9801 3.52718C10.6561 3.81518 10.3321 4.06718 9.93608 4.10318C9.82808 4.24718 9.68408 4.31918 9.57608 4.31918L9.61208 4.28318C9.61208 4.28318 9.57608 4.31918 9.54008 4.31918C9.46808 4.31918 9.36008 4.35518 9.25208 4.35518C9.36008 4.35518 9.43208 4.35518 9.50408 4.35518C9.39608 4.42718 9.21608 4.57118 9.07208 4.71518L8.89208 4.57118L8.85608 4.60718C8.64008 4.64318 8.78408 4.78718 8.96408 4.85918C8.89208 4.93118 8.85608 5.03918 8.82008 5.11118C8.49608 4.93118 8.46008 5.54318 8.06408 5.36318C8.06408 5.47118 7.88408 5.65118 7.70408 5.86718C7.56008 6.08318 7.41608 6.29918 7.52408 6.51518C7.48808 6.47918 7.41608 6.51518 7.48808 6.44318C7.30808 6.55118 7.09208 6.69518 7.02008 6.91118L6.76808 6.76718C6.76808 6.76718 6.73208 6.91118 6.73208 7.05518C6.73208 7.19918 6.69608 7.37918 6.69608 7.37918C6.37208 7.48718 6.22808 7.52318 6.26408 7.12718C6.01208 7.88318 5.94008 7.63118 5.79608 8.31518L5.68808 8.17118C5.54408 8.35118 5.54408 8.78318 5.36408 8.78318C5.22008 8.81918 5.04008 8.96318 4.86008 9.17918C4.68008 9.35918 4.50008 9.68318 4.32008 9.97118C3.92408 10.5472 3.60008 11.2672 3.16808 11.7712C3.45608 11.7712 3.34808 11.8792 3.20408 12.0232C3.06008 12.1672 2.91608 12.3472 3.09608 12.4552C2.95208 12.4912 2.80808 12.6352 2.80808 12.3832C2.70008 13.0312 2.26808 13.2472 2.48408 13.7872C2.34008 13.8232 2.34008 13.6072 2.26808 13.6432C2.26808 13.7152 2.34008 13.8592 2.23208 13.9312C2.16008 13.9672 2.16008 13.8232 2.12408 13.6792C1.83608 14.4712 2.19608 14.6152 2.55608 14.7592ZM21.4921 33.6952L21.3841 33.6592C21.6001 33.5512 21.5641 33.6232 21.4921 33.6952ZM4.46408 22.8952C4.53608 22.9672 4.75208 23.1112 4.64408 23.2552C4.39208 23.2192 4.46408 23.0752 4.46408 22.8952ZM22.9321 3.05918C22.6801 2.87918 22.7881 2.95118 22.9321 3.05918V3.05918ZM3.63608 14.6152C3.67208 14.7232 3.63608 14.8312 3.49208 14.9392C3.49208 14.8312 3.52808 14.7232 3.63608 14.6152Z" fill="#43AFFF"/>
<path d="M15.2643 4.39329C15.1563 4.39329 15.0843 4.35729 15.0483 4.32129C15.0483 4.35729 15.0843 4.39329 15.2643 4.39329Z" fill="#43AFFF"/>
<path d="M26.1727 4.42705C26.2087 4.39105 26.1727 4.28305 26.2807 4.31905L25.9207 4.17505C26.1007 4.28305 26.1367 4.35505 26.1727 4.42705Z" fill="#43AFFF"/>
<path d="M27.8637 7.27275C27.9357 7.27275 27.9357 7.34475 28.0077 7.34475L28.0797 7.27275C27.8997 7.12875 27.7197 7.09275 27.8637 7.27275Z" fill="#43AFFF"/>
<path d="M26.1718 5.14697C26.0998 5.32697 26.3158 5.36297 26.5318 5.50697C26.5318 5.50697 26.4958 5.50697 26.4958 5.47097C26.7118 5.29097 26.4238 5.18297 26.1718 5.14697Z" fill="#43AFFF"/>
<path d="M26.5676 5.5083C26.6396 5.5443 26.7116 5.5803 26.7476 5.6523C26.8556 5.5803 26.7116 5.5803 26.5676 5.5083Z" fill="#43AFFF"/>
<path d="M24.1564 3.49197C24.2284 3.59997 24.3364 3.31197 24.3364 3.41997C24.5524 3.23997 23.5084 3.34797 24.1564 3.49197Z" fill="#43AFFF"/>
<path d="M25.9923 5.7603L26.0643 5.5083L25.8483 5.6163L25.9923 5.7603Z" fill="#43AFFF"/>
<path d="M24.9127 4.89616C24.6967 4.78816 24.4807 4.64416 24.4807 4.71616L24.8047 4.93216C24.7687 4.86016 24.8407 4.86016 24.9127 4.89616Z" fill="#43AFFF"/>
<path d="M24.9125 4.89526C25.0205 4.96726 25.1285 5.00326 25.2005 5.00326C25.1285 4.96726 24.9845 4.89526 24.9125 4.89526Z" fill="#43AFFF"/>
<path d="M25.2366 5.29028L25.5246 5.54228L25.4526 5.43428L25.2366 5.29028Z" fill="#43AFFF"/>
<path d="M20.592 3.31323H20.16C20.088 3.38523 20.196 3.45723 20.376 3.45723C20.484 3.42123 20.664 3.42123 20.592 3.31323Z" fill="#43AFFF"/>
<path d="M21.5278 4.03174L21.4558 4.31974L21.6718 4.24774C21.5638 4.13974 21.5638 4.10374 21.5278 4.03174Z" fill="#43AFFF"/>
<path d="M20.4115 4.21174C20.4835 4.13974 20.8795 4.13974 20.5195 4.03174C20.4475 4.10374 19.9075 4.13974 20.4115 4.21174Z" fill="#43AFFF"/>
<path d="M14.4724 3.23999L14.5084 3.70799H14.6164L14.4724 3.23999Z" fill="#43AFFF"/>
<path d="M10.5122 6.37058C10.5482 6.22658 10.1522 6.44258 10.2242 6.29858C10.0442 6.55058 9.90024 6.55058 10.1522 6.76658C10.6202 6.62258 10.0802 6.44258 10.5122 6.37058Z" fill="#43AFFF"/>
<path d="M10.2249 6.29927C10.2609 6.26327 10.2969 6.22727 10.2969 6.15527C10.2609 6.22727 10.2249 6.26327 10.2249 6.29927Z" fill="#43AFFF"/>
<path d="M33.9124 18.8647L33.7324 19.0807L33.8044 19.1887L33.9124 18.8647Z" fill="#43AFFF"/>
<path d="M33.7687 18.4677L33.5167 18.2517C33.5167 18.3237 33.5527 18.4677 33.4807 18.5397L33.7687 18.4677Z" fill="#43AFFF"/>
<path d="M24.7315 12.347C24.7675 12.347 24.6235 12.203 24.5875 12.167C24.5875 12.239 24.7675 12.383 24.7315 12.347Z" fill="#43AFFF"/>
<path d="M24.6966 12.9953L24.6606 12.9233L24.7326 13.1033L24.6966 12.9953Z" fill="#43AFFF"/>
<path d="M24.5149 12.9966C24.4789 13.1046 24.5149 13.3206 24.4069 13.2846C24.6589 13.5006 24.4789 13.1406 24.6229 13.1766L24.6949 13.2126L24.5149 12.9966Z" fill="#43AFFF"/>
<path d="M23.7609 12.9614C23.7609 12.9614 23.7609 12.9614 23.7249 12.9974C23.8329 13.0694 23.7609 13.0694 23.7609 12.9614Z" fill="#43AFFF"/>
<path d="M23.7594 12.9593C23.6514 12.8873 23.7954 12.8873 23.7594 12.9593V12.9593Z" fill="#43AFFF"/>
<path d="M23.4724 12.9614C23.4724 13.0334 23.5444 13.1054 23.6524 13.1414L23.6164 13.0334C23.5444 12.9974 23.5084 12.9974 23.4724 12.9614Z" fill="#43AFFF"/>
<path d="M23.7952 13.3554V13.2834C23.7592 13.2834 23.7232 13.2834 23.7952 13.3554Z" fill="#43AFFF"/>
<path d="M23.76 13.175L23.796 13.283C23.832 13.319 23.904 13.391 23.796 13.247C23.832 13.319 23.796 13.247 23.76 13.175Z" fill="#43AFFF"/>
<path d="M23.8317 13.1755C23.9037 13.2115 23.9757 13.2115 24.0117 13.3195C24.0477 13.2115 23.8677 13.0675 23.8317 13.1755Z" fill="#43AFFF"/>
<path d="M24.7327 13.608L24.6967 13.5C24.7327 13.536 24.5887 13.5 24.6607 13.572L24.7327 13.608Z" fill="#43AFFF"/>
<path d="M23.2559 13.2834C23.2919 13.3194 23.3999 13.3914 23.4719 13.4634L23.4359 13.3914C23.3999 13.3554 23.3639 13.3554 23.2559 13.2834Z" fill="#43AFFF"/>
<path d="M23.4724 13.4648L23.5084 13.6088C23.5804 13.5728 23.5444 13.5368 23.4724 13.4648Z" fill="#43AFFF"/>
<path d="M24.0479 13.6444V13.6084L23.9399 13.3564L24.0479 13.6444Z" fill="#43AFFF"/>
<path d="M23.0761 13.4653L23.0042 13.3213L23.1121 13.5733L23.0761 13.4653Z" fill="#43AFFF"/>
<path d="M22.9677 13.6076C22.8957 13.4996 22.7877 13.4636 22.7517 13.3916C22.7517 13.4276 22.7877 13.5356 22.8237 13.6436C22.8237 13.6076 22.8597 13.5716 22.9677 13.6076Z" fill="#43AFFF"/>
<path d="M22.86 13.6787C22.86 13.7147 22.896 13.7507 22.932 13.8227C22.896 13.7867 22.86 13.7147 22.86 13.6787Z" fill="#43AFFF"/>
<path d="M23.3999 13.6812C23.3999 13.6452 23.2919 13.5732 23.2559 13.5732L23.3999 13.6812Z" fill="#43AFFF"/>
<path d="M23.3977 13.6787C23.3641 13.6787 23.3641 13.7123 23.3641 13.7123C23.3641 13.7123 23.3641 13.7123 23.3977 13.6787Z" fill="#43AFFF"/>
<path d="M23.7965 13.6084C23.8325 13.7164 23.8685 13.8604 24.0485 13.9324C23.9765 13.8244 23.8685 13.7884 23.7965 13.6084Z" fill="#43AFFF"/>
<path d="M23.5793 13.6436L23.6153 13.7876L23.6873 13.7516C23.6513 13.7516 23.6153 13.7156 23.5793 13.6436Z" fill="#43AFFF"/>
<path d="M23.6513 13.897L23.6153 13.825H23.5793L23.6513 13.897Z" fill="#43AFFF"/>
<path d="M23.1124 13.8611C23.1484 13.9331 23.1484 13.9691 23.1124 14.0051C23.1844 14.0051 23.2204 14.0051 23.2564 13.9691C23.2204 13.8971 23.1484 13.8251 23.1124 13.8611Z" fill="#43AFFF"/>
<path d="M22.86 14.2566C22.86 14.2902 22.8936 14.2902 22.86 14.2566V14.2566Z" fill="#43AFFF"/>
<path d="M23.2925 13.9681C23.3285 13.9681 23.3285 13.9321 23.2925 13.8601C23.2925 13.8961 23.2925 13.9321 23.2925 13.9681Z" fill="#43AFFF"/>
<path d="M22.8954 13.9668C22.9314 13.9668 22.9674 14.0028 23.0034 14.0028C22.9674 13.9668 22.8594 13.8948 22.8954 13.9668Z" fill="#43AFFF"/>
<path d="M23.2207 13.7517C23.2207 13.7877 23.2567 13.8237 23.2927 13.8597C23.2927 13.8237 23.2927 13.8237 23.2927 13.7877C23.2567 13.7877 23.2567 13.7877 23.2207 13.7517Z" fill="#43AFFF"/>
<path d="M23.6871 15.2263C23.5431 15.0823 23.5071 14.9023 23.6871 15.0103C23.6511 14.8663 23.1831 14.4703 22.8951 14.2903C22.9671 14.3623 23.0031 14.3983 23.0391 14.5423C23.1111 14.5783 23.3271 14.5783 23.3991 14.7583C23.3991 14.9023 23.2911 14.7583 23.1831 14.7223C23.3631 14.8663 23.3271 15.0463 23.5791 15.2623L23.5431 15.1183C23.5791 15.1543 23.6511 15.2263 23.6871 15.2263Z" fill="#43AFFF"/>
<path d="M23.0037 14.2207V14.1847C22.9677 14.1847 22.8957 14.1487 22.7517 14.0767C22.7877 14.1847 22.8237 14.2207 22.8597 14.2567L23.0037 14.2207Z" fill="#43AFFF"/>
<path d="M23.1121 14.0754C23.2201 14.2194 23.2561 14.3274 23.4361 14.4714C23.4721 14.3994 23.3642 14.3274 23.3282 14.2194C23.2562 14.3274 23.2561 14.1114 23.1121 14.0754C23.1121 14.0394 23.1482 14.0394 23.1482 14.0034C23.1122 14.0034 23.0761 14.0034 23.0401 14.0034C23.0761 14.0034 23.0761 14.0394 23.0761 14.0034C23.0761 14.0394 23.0761 14.0754 23.1121 14.0754C23.0401 14.0754 23.0401 14.0394 23.0401 14.0034L23.0042 14.1834C23.0402 14.1834 23.0761 14.1474 23.1121 14.0754Z" fill="#43AFFF"/>
<path d="M24.2978 14.2913C24.2642 14.2577 24.2642 14.2913 24.2978 14.2913C24.2642 14.2913 24.2642 14.2913 24.2978 14.2913Z" fill="#43AFFF"/>
<path d="M24.264 14.2563C24.228 14.2203 24.228 14.1123 24.084 14.0763V14.1123C24.012 14.1123 23.76 13.9683 23.76 13.9683C23.904 14.0763 24.012 14.1483 24.156 14.2563C24.156 14.2203 24.084 14.1843 24.12 14.1483C24.192 14.1843 24.228 14.2203 24.264 14.2563Z" fill="#43AFFF"/>
<path d="M23.7602 14.364C23.8322 14.328 23.7242 14.256 23.6882 14.22V14.364L23.8682 14.436L23.7602 14.364Z" fill="#43AFFF"/>
<path d="M22.7874 14.2186L22.6434 14.0386L22.8234 14.2906L22.7874 14.2186Z" fill="#43AFFF"/>
<path d="M22.6078 14.292L22.7158 14.328L22.5718 14.22L22.6078 14.292Z" fill="#43AFFF"/>
<path d="M18.5395 21.7817L18.4675 21.7097C18.5035 21.7457 18.5395 21.7817 18.5395 21.7817Z" fill="#43AFFF"/>
<path d="M20.1242 16.9571C19.9802 16.8851 19.7282 16.7411 19.9082 16.8491L20.0522 16.9931C20.0522 16.9571 20.0882 16.9571 20.1242 16.9571Z" fill="#43AFFF"/>
<path d="M19.1886 19.5846L19.2246 19.6206C19.1886 19.5486 19.1526 19.5126 19.1166 19.4766C19.1526 19.5126 19.1886 19.5486 19.1886 19.5846Z" fill="#43AFFF"/>
<path d="M17.1359 23.5083L17.1719 23.7603C17.2439 23.6883 17.1719 23.6163 17.1359 23.5083Z" fill="#43AFFF"/>
<path d="M21.6716 15.4816C21.5996 15.4456 21.5276 15.4456 21.5276 15.4816C21.6356 15.5176 21.7796 15.5896 21.6716 15.4816Z" fill="#43AFFF"/>
<path d="M16.9927 20.4845C16.9927 20.4485 16.9567 20.4125 16.9207 20.3765C16.9207 20.4125 16.9567 20.4485 16.9927 20.4845Z" fill="#43AFFF"/>
<path d="M21.4196 15.5528C21.4556 15.5528 21.4556 15.5528 21.4556 15.5528C21.4556 15.5168 21.4556 15.4808 21.4916 15.4448C21.4196 15.4448 21.3476 15.4448 21.4196 15.5528Z" fill="#43AFFF"/>
<path d="M12.4558 18.4683C12.4918 18.4683 12.4918 18.4683 12.5278 18.5043C12.5278 18.4683 12.4918 18.4683 12.4558 18.4683Z" fill="#43AFFF"/>
<path d="M14.6153 22.2131C14.5433 22.2491 14.5793 22.2491 14.6153 22.2131V22.2131Z" fill="#43AFFF"/>
<path d="M21.0611 19.1878C20.9171 18.9718 20.9531 18.9718 21.0251 19.0078L20.5931 18.6118L21.0611 19.1878Z" fill="#43AFFF"/>
<path d="M23.0394 15.5176V15.5896C22.8594 15.4816 22.8954 15.3376 22.7874 15.3016C22.7514 15.1576 22.6434 14.9416 22.7874 14.9416L23.0034 15.1216C22.9314 15.0496 22.8234 15.0496 22.8954 15.1216C22.8234 15.0136 23.2914 15.2656 23.0394 14.9776L22.8594 14.9056C22.8234 14.7616 22.6434 14.4736 22.7874 14.4736C22.5714 14.2936 22.7874 14.5096 22.5354 14.3296C22.8594 14.5816 22.3554 14.4736 22.7154 14.7256C22.3914 14.5096 22.5354 14.6896 22.2474 14.5096C22.3194 14.5816 22.3914 14.6176 22.3194 14.6176C22.3194 14.6536 22.3554 14.6536 22.3554 14.6896C22.3914 14.6896 22.4274 14.7256 22.4994 14.7616C22.6434 14.9416 22.5354 15.0136 22.5714 15.1216C22.4994 15.1216 22.4994 15.0496 22.4274 14.9776L22.4994 15.1216C22.3554 14.9776 22.1754 14.9776 22.1754 14.7976L22.1034 14.8696C21.9954 14.8336 21.8874 14.8336 21.9234 14.9416C21.8514 14.9416 21.9954 15.1936 21.9234 15.0496V15.2296L21.8874 15.1936C21.7794 15.2656 21.9234 15.6616 21.5274 15.5176C21.5274 15.5896 21.5274 15.6616 21.4554 15.6976L21.2394 15.6256C21.2394 15.6976 20.9874 15.6256 21.0954 15.7696C20.6994 15.4816 20.8074 15.9136 20.6634 15.9136L20.8434 16.0936C20.7714 16.1296 20.7714 16.2376 20.7714 16.3816L20.9154 16.5256C20.9874 16.7056 20.6634 16.5616 20.5914 16.6696C20.5554 16.5976 20.5914 16.5976 20.6274 16.6336C20.1954 16.4176 20.6274 17.1016 20.3034 16.9576C20.3394 17.0296 20.3034 17.0296 20.2314 17.0296C20.1954 17.0296 20.1594 16.9936 20.1234 16.9936C20.1594 17.0296 20.1954 17.0296 20.2314 17.0296C20.2314 17.0656 20.1954 17.1016 20.2314 17.1736L20.0514 17.0296C19.9794 16.9936 20.0874 17.1376 20.2314 17.2456C20.2314 17.2816 20.2674 17.3176 20.3034 17.3896C20.0154 17.1736 20.3034 17.5336 20.0154 17.3176C20.1234 17.4616 19.9794 17.5696 20.2314 17.8576C20.1954 17.8216 20.1594 17.8216 20.1954 17.7856C20.1234 17.7856 20.0874 17.7856 20.1234 17.8936L19.8714 17.6416L20.0874 17.9656C19.9074 17.8936 19.8354 17.8216 19.7274 17.6416C19.8714 17.9656 19.7274 17.8216 19.8714 18.1456L19.7634 18.0016C19.7274 18.0376 19.8714 18.2536 19.7274 18.1816C19.4034 18.0016 19.3674 18.4696 18.9714 18.4336C19.4034 18.7936 18.7194 18.3616 19.0074 18.6496C18.8994 18.5776 18.8274 18.5416 18.7914 18.4336C18.7914 18.6136 18.5034 18.4336 18.7194 18.7216C18.6114 18.6496 18.6114 18.5776 18.5394 18.5416C18.5394 18.5776 18.5754 18.6496 18.5394 18.6136C18.4674 18.5776 18.4674 18.5416 18.4674 18.4696C18.3954 18.5776 18.6474 18.8656 18.8994 19.1176C18.7194 19.0456 18.7194 19.0816 18.8634 19.2976C18.7554 19.2256 18.6474 19.1536 18.6834 19.0816C18.6474 19.1176 18.3594 19.1536 18.5754 19.3696C18.5034 19.3336 18.5034 19.4056 18.5394 19.4416C18.4674 19.5136 18.4314 19.4776 18.3954 19.5856H18.4314C18.6474 19.8736 18.4314 19.6936 18.3954 19.8016L18.3594 19.7656C17.9994 19.6936 18.3594 19.8736 18.0354 19.8016L18.2154 19.9456C18.5394 20.3056 17.8914 19.8736 17.9634 20.0536L18.0714 20.1256C18.1434 20.2696 17.4954 19.8016 17.4234 19.7656C17.3874 19.7296 17.3874 19.6936 17.3874 19.6576C17.0994 19.5496 17.5674 19.8736 17.5314 20.0176C17.4234 19.9096 17.2794 19.7296 17.2074 19.7656C17.0994 19.6936 17.4234 20.2696 17.1354 20.1256C17.2434 20.1976 17.3514 20.2696 17.3514 20.3776C17.3154 20.4496 16.8834 20.1976 17.0994 20.5216C17.0634 20.5216 17.0274 20.4856 17.0274 20.4496C17.0634 20.5576 16.9914 20.7016 17.1354 20.8816C16.5594 20.3776 17.1354 21.4216 16.6674 20.8816L16.5594 21.0256L16.5234 20.9536C16.4514 20.9536 16.5234 21.0976 16.5954 21.2776C16.5594 21.2416 16.5594 21.2056 16.5234 21.1696C16.3794 21.0976 16.4154 21.1336 16.4874 21.5656L16.3794 21.3496C16.3794 21.4216 16.3434 21.3496 16.2714 21.3136C16.1994 21.2776 16.1634 21.2416 16.1634 21.4216C16.1634 21.3856 16.1634 21.3496 16.1634 21.2776C16.1634 21.4216 16.1274 21.3856 16.0914 21.3136C16.0554 21.2416 16.0194 21.1696 16.0194 21.2056C16.0194 21.2056 15.9834 21.3496 15.9834 21.6376C15.9834 21.6376 15.9834 21.7096 15.9474 21.7456C15.9474 21.7816 15.9114 21.8536 15.9114 21.8536C16.0194 21.9976 15.8754 22.3216 15.9114 22.5016C15.8394 22.5016 15.8034 22.0696 15.8754 22.0696V22.1416C15.9114 21.6016 15.7674 21.8536 15.8034 21.4936C15.7314 21.4576 15.6594 21.3136 15.6234 21.2056C15.5874 21.0976 15.5514 20.9896 15.5154 20.9536L15.3714 21.2416L15.3354 21.1696C15.3714 21.0976 15.4794 20.9536 15.4794 20.9896C15.5874 20.8096 15.3354 21.0976 15.2994 21.1336C15.3354 20.9896 15.5514 20.8456 15.5514 20.8096H15.5154L15.4794 20.8456C15.3714 20.9536 15.2634 21.0256 15.2274 20.9536C15.2274 20.8816 15.3354 20.7736 15.3354 20.7376C15.3354 20.7016 15.3354 20.7016 15.2994 20.7016L15.2274 20.5936L15.1194 20.8816C14.9754 20.9536 15.0474 20.7736 14.8674 21.0616C15.0834 20.6296 14.5794 20.6296 14.6514 20.4496C14.4714 20.5576 14.3994 20.4856 14.3274 20.4136C14.3274 20.4856 14.1474 20.7016 14.0754 20.6296C14.5074 20.1616 14.1114 20.3056 14.3634 19.9456C14.2194 20.1976 14.1114 19.8376 13.9314 20.2336C13.8954 20.1616 14.0754 20.0536 14.1114 19.9096C13.8234 19.9816 13.9314 19.5496 13.7154 19.4776C13.6434 19.5496 13.6074 19.6576 13.4994 19.7296L13.6794 19.3336C13.6074 19.3336 13.3554 19.6576 13.4634 19.4056C13.4274 19.4776 13.3914 19.5496 13.3194 19.5496C13.2474 18.9736 12.4554 19.2616 12.5994 18.3976C12.5274 18.5416 12.4914 18.5416 12.4554 18.5056C12.4554 18.5416 12.3114 18.6496 12.2754 18.7576L12.3474 18.3976C12.1314 18.6136 12.2034 18.2896 11.9874 18.5056H12.0594C11.7714 18.7216 11.6634 19.1536 11.3394 19.4776C11.6634 19.2256 11.1234 20.0536 11.5914 19.7296C11.5554 19.8016 11.4834 19.8376 11.4114 19.9096C11.5554 19.8016 11.6274 19.8016 11.6274 19.9096L11.5914 19.9456C11.8074 20.0536 11.7354 20.2696 11.8434 20.5216L11.9874 20.3416C12.0234 20.4136 11.9874 20.4496 11.9514 20.5216C12.2034 20.3056 11.8434 20.4136 12.1314 20.1616C11.9154 20.5576 12.4194 20.4136 12.1314 20.8096C12.2034 20.8816 12.2754 20.5936 12.3474 20.6656L12.2754 20.7736L12.4194 20.6656C12.4554 20.7376 12.3474 20.8816 12.2754 20.9536C12.2754 20.9176 12.2394 20.9536 12.2034 20.9536C12.1674 21.1336 12.3834 21.0256 12.3834 21.0976V20.9896C12.6354 21.0256 12.7434 21.3496 13.0674 21.2776L13.1034 21.2056C13.3554 21.1696 13.1394 21.3856 13.3194 21.4216H13.2834C13.3914 21.3496 13.4634 21.3496 13.4634 21.3856C13.3554 21.4576 13.3914 21.6376 13.2474 21.6736C13.4994 21.6376 13.4274 21.6016 13.7514 21.3856L13.6794 21.5296C13.8234 21.4216 13.8594 21.3856 13.9674 21.3856C13.8234 21.4576 13.8594 21.6376 13.6434 21.7096C13.5354 22.1056 14.1114 21.6016 13.8234 22.0696C14.1834 21.7456 13.8594 21.7456 13.9674 21.7096C14.0394 21.5656 14.2554 21.4936 14.2554 21.5656C14.2914 21.6016 13.9314 22.1056 14.0754 22.1776H14.0394C14.0034 22.3216 14.2194 22.1416 14.1474 22.3216C14.3634 22.1416 14.2554 22.4296 14.4714 22.1416C14.4714 22.1416 14.2554 22.0696 14.2914 22.1056C14.3634 22.1056 14.4714 22.0336 14.5794 21.9976C14.6874 21.9616 14.7594 21.9616 14.7594 22.1056C14.7234 22.1776 14.6154 22.2136 14.5434 22.2496C14.5074 22.3576 14.6514 22.2496 14.6514 22.3936C14.4354 22.6816 14.4354 22.3216 14.1474 22.4656C14.1114 22.6456 14.5074 22.4296 14.2194 22.6816C14.3994 22.5016 14.4354 22.5376 14.4714 22.6096C14.5074 22.6816 14.5434 22.7536 14.6874 22.6456L14.5794 22.8256C14.6154 22.8256 14.6874 22.7536 14.7234 22.7896C14.7234 22.7896 14.6874 22.8256 14.6154 22.8976C14.5794 22.9336 14.5074 23.0056 14.5074 23.0056C14.7234 22.8616 14.6154 23.3656 14.7954 23.3296C14.5794 23.1496 14.8314 23.0416 14.8314 22.7896C15.1554 22.6816 14.7954 23.4376 15.0834 23.6176C15.0474 23.5456 15.0114 23.3656 15.0834 23.3296C15.1194 23.4376 15.1914 23.5816 15.1914 23.7256C15.4074 23.8336 15.2274 23.4376 15.3354 23.3656C15.3354 23.7256 15.4434 23.3296 15.5154 23.2936L15.4794 23.5456C15.6594 23.9056 15.5874 23.0416 15.7314 23.4016C15.7314 23.4016 15.6954 23.4736 15.6954 23.5456C15.6594 23.6176 15.6594 23.6896 15.6594 23.6896H15.7674L15.7314 23.9776C15.8394 23.8336 15.8754 23.9056 15.9834 24.1216C15.9474 23.9056 15.9834 23.5816 16.0554 23.6536V23.6896C16.0914 23.7976 16.0194 23.9776 16.1274 23.8336C16.1274 24.0136 16.0914 24.2296 16.0554 24.1576C16.0554 24.1216 16.0194 24.0856 16.0194 24.0136C16.0194 24.1216 15.9834 24.1936 15.9834 24.2656C16.0194 24.3376 16.0194 24.3736 16.0554 24.4096C16.1274 24.3736 16.1634 24.2296 16.1994 24.1936C16.1634 24.1936 16.1634 24.1936 16.1274 24.1936C16.1274 24.1936 16.1634 24.0496 16.1994 23.9056C16.2354 23.7616 16.2714 23.6176 16.2714 23.6176C16.3074 23.6896 16.3074 23.7976 16.2714 23.9056C16.3074 23.8336 16.3074 23.6896 16.3434 23.6176C16.3794 23.8696 16.4154 24.0856 16.3434 24.2656L16.4874 23.8336C16.5234 23.9056 16.6314 23.9776 16.6314 24.0856C16.7754 24.0856 16.7754 23.4376 16.9554 23.4376C16.9554 23.4016 16.9554 23.3296 16.9554 23.2936C17.0994 23.2216 17.3154 23.2936 17.3514 22.9336C17.3514 22.9336 17.4234 22.9696 17.4954 23.0416C17.5674 23.0776 17.6394 23.1496 17.6394 23.1496C17.7114 22.9696 17.3154 22.8976 17.4234 22.6096C17.4954 22.3936 17.6394 22.7896 17.7474 22.8256C17.7114 22.6096 17.6034 22.2496 17.8914 22.3216C17.8914 22.3936 17.8194 22.3936 17.8194 22.4656C17.8194 22.4656 17.8554 22.4656 17.9274 22.5016C17.9994 22.5016 18.0354 22.5016 18.0354 22.5016C18.1074 22.8256 17.9634 22.8616 18.2154 22.9696C18.1074 22.8616 18.0714 22.7536 18.1074 22.6816C18.1074 22.6096 18.1794 22.5376 18.1794 22.5376C18.2154 22.4656 18.2514 22.3936 18.0354 22.1776L18.1794 22.2496V22.2856C18.4674 22.4296 17.9274 21.9256 18.0714 21.8896C18.1434 21.8896 18.2154 21.9256 18.2514 21.9976L18.2154 21.8176C18.2514 21.8176 18.3234 21.8896 18.2874 21.8896L18.3594 21.7456C18.2874 21.6736 18.2154 21.5296 18.2154 21.4576C18.3234 21.4936 18.2514 21.5296 18.3234 21.5656L18.2874 21.3856C18.4314 21.4576 18.5034 21.6376 18.4314 21.6736C18.9354 22.0696 18.3594 21.4936 18.7554 21.6376V21.7456C19.0434 21.9616 19.0074 21.8176 19.2234 21.9256C19.1154 21.8536 18.6834 21.6736 18.6474 21.4936C18.6834 21.4936 18.7554 21.4936 18.6834 21.3856C18.8274 21.5296 18.8274 21.4576 18.8634 21.4216L19.0794 21.6376C19.0794 21.5296 18.9714 21.4216 18.8994 21.3136C18.9714 21.2776 19.1514 21.4216 19.2954 21.5656C19.4034 21.5296 18.9714 21.3496 19.0434 21.2416C19.1874 21.2416 19.1514 21.1336 19.1154 20.9176C19.2234 20.9536 19.2234 21.0616 19.2954 21.0976L19.1874 20.8816C19.1874 20.8816 19.2594 20.9176 19.2594 20.9536C19.2234 20.8456 19.0434 20.7376 19.0434 20.6296C18.8274 20.3776 19.5114 20.8456 19.2954 20.5216C19.3674 20.5576 19.4034 20.6656 19.5114 20.7376C19.4394 20.4856 19.4754 20.5216 19.3314 20.2336L19.5474 20.3056C19.3314 20.1976 19.2234 19.9456 19.1154 19.7296C19.0074 19.6576 18.9354 19.6216 18.8994 19.5856L18.8634 19.3696C18.8994 19.4056 18.9714 19.4776 19.0434 19.5856C19.0434 19.5496 19.0074 19.5496 19.0074 19.5136C19.1154 19.5496 19.2234 19.6936 19.3314 19.8376C19.2954 19.8016 19.2234 19.7656 19.1874 19.7296C19.2954 19.8736 19.4034 20.0536 19.5474 20.1616C19.5114 20.1256 19.5114 20.0896 19.5114 20.0896C19.5474 20.1256 19.5834 20.1616 19.5834 20.1976C19.6194 20.2336 19.5834 20.1616 19.5474 20.0896L19.7994 20.3056L19.7274 20.1976L19.9794 20.2336C19.8354 19.9096 19.5474 19.5136 19.5834 19.2616C19.7274 19.4776 19.8714 19.5496 20.0514 19.7656C19.7994 19.5856 20.0514 19.9456 19.9434 19.9816C20.0154 19.9816 20.0874 20.0536 20.1234 20.1256L20.0514 19.8016C20.2314 19.9816 20.1954 19.9096 20.3034 19.9456C19.9434 19.6576 20.1594 19.6216 20.1234 19.4776C20.2314 19.5856 20.3394 19.6936 20.2674 19.7296C20.5914 19.9096 19.9794 19.2616 20.2314 19.4056C20.2314 19.4056 20.1954 19.4056 20.2314 19.4776C20.1594 19.3336 20.3394 19.3336 20.4114 19.4416C20.5554 19.3696 20.6994 19.1536 20.4474 18.8656C20.4834 18.9016 20.7714 19.2256 20.8074 19.2616L20.0514 18.1456C20.2674 18.3976 20.9154 18.9016 20.9514 19.1176C21.0234 19.1176 21.0954 19.1536 21.0594 19.0096C21.0234 19.0096 20.6634 18.7216 20.6634 18.6496C20.9874 18.8656 20.8434 18.7576 21.1674 18.9016C21.0954 18.8656 20.7354 18.4696 20.8074 18.4336C20.8434 18.5056 21.1674 18.7936 21.2034 18.8656L20.9154 18.3976C20.9514 18.4696 21.2394 18.7216 21.3474 18.7936C21.2754 18.7216 21.4194 18.7216 21.4194 18.6496L21.3114 18.6136C21.4914 18.5776 20.9154 18.0016 21.0234 17.8936C21.0954 17.9656 21.4554 18.3976 21.5634 18.3976C21.3834 18.1816 20.7714 17.3896 20.6994 17.1376L20.8434 17.2096L20.8074 16.9216C21.0594 17.2456 21.5274 17.9656 21.6714 18.2536C21.7794 18.2896 21.8154 18.3616 21.8514 18.2896C21.9594 18.3616 21.9594 18.4696 21.9594 18.5056L22.1754 18.4336C21.9594 18.2176 22.0674 18.1096 21.8874 17.9296L21.9594 18.3256C21.7434 18.1096 21.4194 17.6056 21.5634 17.5696C21.6714 17.6416 21.9234 17.9656 21.9954 18.0376C21.9234 17.9656 21.9594 17.7856 21.9954 17.8576L22.0674 18.0016C22.2114 18.0376 21.8514 17.6056 22.1394 17.7496C22.1754 17.7496 22.4994 17.9656 22.3554 17.8216C22.0674 17.6056 21.2754 16.8496 21.1314 16.6336C21.1674 16.6336 21.4914 16.7416 21.6354 16.8496C21.8874 16.9936 22.0314 17.3896 22.2474 17.4976C22.1754 17.4256 22.1394 17.3536 22.1034 17.3176C22.1754 17.3536 22.2834 17.4976 22.3194 17.4256C22.1034 17.2096 22.4274 17.3536 22.1394 17.2096C22.1394 17.1016 22.2474 17.2096 22.2834 17.1376C22.1034 17.0296 21.8514 16.5976 21.8154 16.4896C21.8514 16.5616 21.9594 16.5976 21.9954 16.6336C22.1034 16.5616 22.2834 16.5976 22.3914 16.4896C22.4634 16.5256 22.5714 16.5616 22.6434 16.6696C22.6074 16.6336 22.5714 16.5256 22.5714 16.4896C22.8234 16.6336 22.5354 16.5976 22.8234 16.7776C22.6794 16.6336 22.7154 16.5256 22.6794 16.3816C22.4634 16.2016 22.5354 16.4536 22.5714 16.5616C22.2834 16.2736 22.0674 15.9136 22.0674 15.6976C22.0674 15.5536 22.2834 15.8416 22.2474 15.7696C22.4634 15.6616 21.8874 15.1576 22.2114 15.2296C22.4274 15.3376 22.5714 15.5896 22.7154 15.6976C22.7154 15.8416 22.4994 15.6976 22.4634 15.7336L22.6074 15.7696C22.6434 15.8416 22.6434 15.9496 22.5714 15.9136C22.7874 16.0216 22.8594 15.6976 23.1114 15.6976C23.1474 15.6616 23.1474 15.5896 23.0394 15.5176ZM15.2994 20.8096L15.2634 20.8816C15.1914 20.9176 15.2274 20.8816 15.2994 20.8096ZM18.7194 21.5656C18.5394 21.3496 18.6474 21.4216 18.7554 21.4576C18.7554 21.4936 18.8274 21.6376 18.7194 21.5656ZM19.5474 19.8016C19.5474 19.7656 19.5834 19.7656 19.6194 19.7656C19.6554 19.8376 19.6194 19.8376 19.5474 19.8016ZM22.1034 15.0856C21.9954 15.0496 22.0314 15.0856 22.1034 15.0856V15.0856Z" fill="#43AFFF"/>
<path d="M19.6915 20.1223C19.6555 20.0863 19.6195 20.0863 19.5835 20.0503C19.6195 20.0863 19.6555 20.1223 19.6915 20.1223Z" fill="#43AFFF"/>
<path d="M22.2848 17.5317C22.3208 17.5677 22.3568 17.6037 22.3928 17.5677C22.3568 17.5677 22.3208 17.5677 22.2848 17.5317Z" fill="#43AFFF"/>
<path d="M22.3566 14.3999V14.4719C22.3566 14.4359 22.4286 14.4719 22.4646 14.4719C22.4286 14.4719 22.3566 14.3999 22.3566 14.3999Z" fill="#43AFFF"/>
<path d="M23.7602 14.941C23.7602 14.905 23.7602 14.941 23.7602 14.905L23.6882 14.833C23.6882 14.869 23.7242 14.941 23.7602 14.941Z" fill="#43AFFF"/>
<path d="M22.9319 14.8667C23.0759 15.0107 23.0399 14.9027 23.0759 14.8667C22.8959 14.6867 22.9319 14.7587 22.9319 14.8667Z" fill="#43AFFF"/>
<path d="M23.0757 14.8679C23.0757 14.8319 23.0757 14.8319 23.0757 14.8679C23.0397 14.7239 23.0757 14.8319 23.0757 14.8679Z" fill="#43AFFF"/>
<path d="M22.2481 14.8673C22.2841 14.8673 22.1041 14.6873 22.1401 14.7233C21.9961 14.5793 22.2481 15.0473 22.2481 14.8673Z" fill="#43AFFF"/>
<path d="M23.2207 15.1201L23.3287 15.2641H23.4007L23.2207 15.1201Z" fill="#43AFFF"/>
<path d="M23.0035 15.4438H23.1115C23.0755 15.4078 23.0755 15.4078 23.0755 15.3718C23.0395 15.3718 22.9675 15.3718 23.0035 15.4438Z" fill="#43AFFF"/>
<path d="M23.1122 15.2634C23.1122 15.2634 23.0762 15.2994 23.1122 15.3354C23.1122 15.3354 23.1122 15.2994 23.1122 15.2634Z" fill="#43AFFF"/>
<path d="M23.2925 15.4078H23.4005L23.3285 15.3718L23.2925 15.4078Z" fill="#43AFFF"/>
<path d="M22.3917 16.0929C22.4277 16.1649 22.4997 16.1649 22.4997 16.1289C22.4637 16.0929 22.4637 16.0209 22.4277 15.9849L22.3917 16.0929Z" fill="#43AFFF"/>
<path d="M23.0391 16.2362C23.0031 16.2362 22.9671 16.2002 22.8951 16.1282L23.1111 16.3442L23.0391 16.2362Z" fill="#43AFFF"/>
<path d="M23.0391 16.6309C23.0031 16.5589 23.0031 16.4509 22.8951 16.4869C22.9671 16.5229 23.0031 16.7029 23.0391 16.6309Z" fill="#43AFFF"/>
<path d="M21.7798 17.1351V17.0991L21.4558 16.7751L21.7798 17.1351Z" fill="#43AFFF"/>
<path d="M21.7441 18.5033C21.6721 18.3953 21.6001 18.4673 21.5641 18.3953C21.6001 18.5033 21.5281 18.5033 21.7801 18.6833C21.9241 18.7193 21.6001 18.4673 21.7441 18.5033Z" fill="#43AFFF"/>
<path d="M12.3834 18.144L12.4554 18.108V18L12.3834 18.144Z" fill="#43AFFF"/>
<path d="M12.3126 18.0732L12.0966 18.2532C12.1326 18.2532 12.1686 18.2532 12.1326 18.3252L12.3126 18.0732Z" fill="#43AFFF"/>
<path d="M19.1517 21.672L19.2957 21.744L19.2597 21.672C19.1877 21.636 19.1517 21.636 19.1517 21.672Z" fill="#43AFFF"/>
<path d="M18.5035 22.2117H18.5395L18.3235 22.0317L18.5035 22.2117Z" fill="#43AFFF"/>
<path d="M18.0357 23.1834C18.0717 23.1474 18.1077 23.0394 18.1437 23.0034C18.0717 23.1474 17.8197 22.9314 18.0357 23.1834Z" fill="#43AFFF"/>
</svg>
